<svg width="20" height="20" viewBox="0 0 20 20" fill="none" xmlns="http://www.w3.org/2000/svg">
<path d="M3.02003 1.11088L4.44214 3.11283L1.75288 3.83791L3.10788 4.56174C1.63835 6.04611 0.667175 8.57482 0.860534 12.3328V19.2578H6.61499V19.2505H10.5371C10.0004 16.9446 9.93678 14.9292 10.3198 13.396C9.65753 13.0843 9.33831 12.7178 9.04049 12.2095C11.0463 13.0351 14.0256 13.5994 16.8714 12.9358C15.9641 12.5414 15.0327 12.0538 14.1333 11.4844L14.1321 11.4832C13.4291 11.0725 12.7671 10.6142 12.1802 10.0623C11.8136 9.75447 11.4611 9.43174 11.1292 9.09432C12.5383 8.09803 14.1486 7.52021 15.7642 7.26322C15.4626 7.4626 15.1651 7.68588 14.878 7.92482C14.1642 8.51885 13.521 9.20357 13.1079 9.90357C13.2993 10.0593 13.4993 10.2077 13.7061 10.3504C14.0583 9.74404 14.6604 9.05662 15.3455 8.48639C16.2932 7.6976 17.4134 7.131 18.0823 7.10455H18.0872C18.5126 7.11291 18.9312 7.14107 19.3397 7.18756C18.9163 6.88885 18.4901 6.62166 18.0616 6.38432V6.37455C18.0559 6.37479 18.0502 6.37553 18.0445 6.3758C15.9021 5.19354 13.6996 4.76271 11.4808 4.94143C10.6499 3.99494 9.56577 3.35471 8.40827 3.07131L3.02003 1.11088ZM5.92405 5.30275C6.10647 5.30275 6.28186 5.33221 6.44651 5.38576C6.11475 5.49186 5.87405 5.80244 5.87405 6.16947C5.87405 6.62393 6.24233 6.99221 6.69682 6.99221C7.0812 6.99221 7.40471 6.72838 7.49514 6.37209C7.57279 6.56918 7.61255 6.77916 7.61233 6.991C7.61233 7.9233 6.85647 8.6792 5.92405 8.6792C4.99175 8.6792 4.23585 7.92334 4.23585 6.99092C4.23585 6.05861 4.99163 5.30275 5.92405 5.30275Z" fill="#F19200"/>
</svg>
