<svg width="17" height="21" viewBox="0 0 17 21" fill="none" xmlns="http://www.w3.org/2000/svg">
<path d="M16 12.8056C16 16.7262 12.565 19.7703 8.5 19.7703C4.435 19.7703 1 16.7262 1 12.8056C1 10.3953 2.22344 8.00654 3.54625 6.10435C4.88688 4.17779 6.43 2.61123 7.26063 1.82185M16 12.8056L7.26063 1.82185M16 12.8056C16 10.3953 14.7766 8.00654 13.4538 6.10435C12.1131 4.17779 10.57 2.61123 9.73937 1.82185C9.40565 1.50278 8.96172 1.32471 8.5 1.32471C8.03828 1.32471 7.59435 1.50278 7.26063 1.82185" stroke="#00BCFF" stroke-width="2"/>
<path d="M8.5 16.0203C7.50544 16.0203 6.55161 15.6252 5.84835 14.9219C5.14509 14.2187 4.75 13.2649 4.75 12.2703" stroke="#00BCFF" stroke-width="2" stroke-linecap="round"/>
</svg>
