<svg width="42" height="42" viewBox="0 0 42 42" fill="none" xmlns="http://www.w3.org/2000/svg">
<path d="M21 18.9167C20.4475 18.9167 19.9176 19.1361 19.5269 19.5268C19.1362 19.9176 18.9167 20.4475 18.9167 21C18.9167 21.5525 19.1362 22.0824 19.5269 22.4731C19.9176 22.8638 20.4475 23.0833 21 23.0833C21.5525 23.0833 22.0824 22.8638 22.4731 22.4731C22.8638 22.0824 23.0833 21.5525 23.0833 21C23.0833 20.4475 22.8638 19.9176 22.4731 19.5268C22.0824 19.1361 21.5525 18.9167 21 18.9167ZM22.0417 0.166656C31.4167 0.166656 31.6458 7.60416 26.7292 10.0625C24.6667 11.0833 23.75 13.2708 23.3542 15.2083C24.3542 15.625 25.2292 16.2708 25.8958 17.1042C33.6042 12.9375 41.8958 14.5833 41.8958 22.0417C41.8958 31.4167 34.4583 31.625 32 26.6875C30.9583 24.625 28.75 23.7083 26.8125 23.3125C26.3958 24.3125 25.75 25.1667 24.9167 25.875C29.0625 33.5625 27.4167 41.8333 19.9583 41.8333C10.5833 41.8333 10.3958 34.375 15.3125 31.9167C17.3542 30.8958 18.2708 28.7292 18.6875 26.8125C17.6667 26.3958 16.7708 25.7292 16.1042 24.8958C8.41667 29.0208 0.166672 27.3958 0.166672 19.9583C0.166672 10.5833 7.58334 10.3542 10.0417 15.2917C11.0833 17.3542 13.2708 18.25 15.2083 18.6458C15.6042 17.6458 16.2708 16.7708 17.125 16.1042C12.9792 8.41666 14.625 0.166656 22.0417 0.166656Z" fill="#F19200"/>
</svg>
