<svg width="66" height="74" viewBox="0 0 66 74" fill="none" xmlns="http://www.w3.org/2000/svg">
<path d="M33 0.582825L0.0656128 28.8125L3.0828 31.8281L33 6.90157L62.9062 31.8281L65.9375 28.8125L33 0.582825ZM33 10.5609L10.6562 29.1875L19.125 65.1406H46.875L55.3437 29.1875L33 10.5609ZM33 21.2344C39.9062 21.2344 45.5 26.8281 45.5 33.7344C45.5 40.6406 39.9062 46.2344 33 46.2344C26.0937 46.2344 20.5 40.6406 20.5 33.7344C20.5 26.8281 26.0937 21.2344 33 21.2344ZM33 54.0469C34.375 54.0469 35.5 55.1719 35.5 56.5469C35.5 57.9219 34.375 59.0469 33 59.0469C31.625 59.0469 30.5 57.9219 30.5 56.5469C30.5 55.1719 31.625 54.0469 33 54.0469ZM31.5937 67.9531V73.4219H34.4062V67.9531H31.5937Z" fill="#2C2C2C"/>
</svg>
