<svg width="61" height="60" viewBox="0 0 61 60" fill="none" xmlns="http://www.w3.org/2000/svg">
<path d="M30.5 58.125C33.6299 58.125 36.1672 56.6286 36.1672 54.7828C36.1672 52.937 33.6299 51.4406 30.5 51.4406C27.3701 51.4406 24.8328 52.937 24.8328 54.7828C24.8328 56.6286 27.3701 58.125 30.5 58.125Z" fill="#424242"/>
<path d="M30.5 1.875C20.6187 1.875 12.6031 9.22031 12.6031 18.2766C12.6031 20.6391 13.3156 23.1656 14.3609 25.3922C15.8281 28.5234 17.4266 30.8391 17.8953 31.6922C19.1984 34.0641 19.0109 36.5625 19.3719 38.1281C20.0516 41.0531 22.0859 42.1125 30.4953 42.1125C38.9047 42.1125 40.7141 41.1047 41.4687 38.4094C41.9844 36.5766 41.4828 34.575 42.7812 32.2078C43.25 31.3547 45.1578 28.5281 46.6297 25.3922C47.675 23.1656 48.3875 20.6391 48.3875 18.2766C48.3969 9.22031 40.3812 1.875 30.5 1.875Z" fill="#FFD600"/>
<path d="M30.5 42.4641C36.1799 42.4641 40.7844 41.5281 40.7844 40.3734C40.7844 39.2188 36.1799 38.2828 30.5 38.2828C24.8201 38.2828 20.2156 39.2188 20.2156 40.3734C20.2156 41.5281 24.8201 42.4641 30.5 42.4641Z" fill="#B26500"/>
<path d="M30.5 42.4641C36.1799 42.4641 40.7844 41.5281 40.7844 40.3734C40.7844 39.2188 36.1799 38.2828 30.5 38.2828C24.8201 38.2828 20.2156 39.2188 20.2156 40.3734C20.2156 41.5281 24.8201 42.4641 30.5 42.4641Z" fill="#B26500"/>
<path d="M30.5 41.3391C34.6396 41.3391 37.9953 40.9067 37.9953 40.3734C37.9953 39.8401 34.6396 39.4078 30.5 39.4078C26.3605 39.4078 23.0047 39.8401 23.0047 40.3734C23.0047 40.9067 26.3605 41.3391 30.5 41.3391Z" fill="#FFA000"/>
<path d="M25.4844 26.611C25.1938 27.3422 24.4391 28.8469 24.8328 29.5219C25.7469 31.0922 27.9266 31.6547 27.9266 33.0984C27.9266 35.3016 26.3235 42.4406 26.3235 42.4406M35.2016 26.3484C35.2016 26.3484 36.2516 28.5984 35.8063 29.6063C35.4735 30.3563 33.4719 31.5656 33.2141 31.7672C32.0188 32.7047 33.6078 42.4453 33.6078 42.4453" stroke="#B26500" stroke-width="0.25" stroke-miterlimit="10"/>
<path d="M25.4844 26.6109C27.0969 23.4234 27.9266 16.1484 25.8781 16.5188C22.4235 17.1422 26.6797 29.0953 28.775 27.7219C30.8703 26.3484 33.4672 16.5422 30.2797 16.5047C27.0922 16.4672 30.4953 29.0016 32.661 27.6094C34.3719 26.5078 38.5485 16.5188 35.1172 16.5188C32.1969 16.5188 35.2063 26.3484 35.2063 26.3484" stroke="white" stroke-width="0.25" stroke-miterlimit="10"/>
<path d="M40.7609 40.8094C40.7609 40.8094 38.0609 42.1125 30.5 42.1125C22.9391 42.1125 20.2391 40.8094 20.2391 40.8094C20.2391 40.8094 20.0703 43.2188 20.6281 44.311C21.2984 45.6235 21.8141 46.0781 21.8141 46.0781L22.0953 47.4141L21.9828 47.7656C21.8375 48.225 21.9406 48.7313 22.2641 49.0922L22.5078 49.3641L22.7797 50.6485L22.6859 50.9063C22.5078 51.3984 22.6297 51.9469 22.9953 52.3219L23.1734 52.5047L23.3938 53.5547C23.3938 53.5547 24.5094 55.936 30.5 55.936C36.4906 55.936 37.6063 53.5547 37.6063 53.5547L37.625 53.4656L37.7469 53.3438C37.9906 53.1047 38.0703 52.7485 37.9531 52.4297L37.8828 52.2469L38.1734 50.8594L38.6844 50.3203C38.9375 50.0531 38.9938 49.6594 38.8297 49.3313L38.5953 48.8672L38.8906 47.475L39.0781 47.3297C39.3547 47.025 39.3594 46.5656 39.2375 46.2516C39.1438 46.0031 39.2188 45.7219 39.4109 45.5391C39.7063 45.2578 40.0859 44.8313 40.3672 44.3016C40.9438 43.2281 40.7609 40.8094 40.7609 40.8094Z" fill="#82AEC0"/>
<path d="M21.8141 46.0781L22.0672 47.4234C24.7953 47.4094 28.4375 47.5453 35.4266 46.4344C36.6875 46.1484 38.2016 45.5812 36.5281 45.8156C36.5281 45.8109 30.1109 46.425 21.8141 46.0781ZM22.7516 50.6578C25.7703 50.6062 31.9391 50.3062 38.5672 48.8672L38.8625 47.475C31.9297 49.05 25.4094 49.3312 22.4797 49.3687L22.7516 50.6578ZM38.1453 50.8547C32.0094 52.1859 26.2672 52.5281 23.1594 52.6031L23.3609 53.5594C23.3609 53.5594 23.4594 56.5265 30.4672 56.5265C37.475 56.5265 37.5734 53.5594 37.5734 53.5594C37.5734 53.5594 34.5828 54.4125 30.9031 53.9953C30.8643 53.9956 30.8259 53.9883 30.7899 53.9737C30.754 53.9592 30.7213 53.9377 30.6936 53.9105C30.6378 53.8555 30.6061 53.7806 30.6055 53.7023C30.6048 53.624 30.6354 53.5486 30.6903 53.4928C30.7452 53.437 30.8201 53.4053 30.8984 53.4047C33.0969 53.114 35.7219 52.6828 37.8547 52.2422L38.1453 50.8547Z" fill="#2F7889"/>
<path d="M20.2719 40.8094C20.2719 40.8094 23.3 42.1125 30.4719 42.1125C37.6438 42.1125 40.7281 40.8094 40.7281 40.8094" stroke="#82AEC0" stroke-width="0.499625" stroke-miterlimit="10" stroke-linecap="round"/>
<path d="M23.8813 4.83749C25.7141 4.38749 27.6313 4.61249 28.9438 6.20624C29.3141 6.65624 29.6 7.19061 29.6656 7.77186C29.7969 8.89217 29.1031 9.95155 28.2781 10.7297C25.925 12.9515 22.5828 14.0297 21.0641 17.0953C20.7078 17.8125 20.4266 18.5859 19.8828 19.1719C19.3391 19.7578 18.4344 20.114 17.7266 19.739C17.3516 19.5422 17.0938 19.1719 16.8828 18.8015C15.5516 16.4297 15.65 13.4062 16.8219 10.95C18.111 8.25936 20.9375 5.55936 23.8813 4.83749Z" fill="#FFFF8D"/>
<path d="M22.2734 43.0922C21.8609 42.9047 22.025 42.2859 22.475 42.3188C23.9844 42.4359 26.5531 42.5813 29.9516 42.5813C33.5328 42.5813 36.6828 42.3141 38.5203 42.1172C38.975 42.0703 39.1484 42.6938 38.7313 42.8859C37.3156 43.5516 34.7234 44.3109 30.2797 44.3109C25.9438 44.3109 23.5531 43.6688 22.2734 43.0922Z" fill="#FFD600"/>
<path d="M24.8469 47.8266C24.5328 47.9391 24.2094 48.0938 24.05 48.3844C23.9937 48.4922 23.9609 48.6141 23.9844 48.736C24.0219 48.9141 24.1859 49.0406 24.35 49.1203C24.6781 49.2797 25.0484 49.3219 25.4094 49.3266C26.1547 49.336 26.8953 49.1953 27.6312 49.0547C27.8516 49.0125 28.0766 48.9703 28.2734 48.8625C28.4703 48.7547 28.6391 48.5719 28.6719 48.3516C28.7187 48.0563 28.5078 47.7703 28.25 47.6297C27.3594 47.1375 25.7469 47.5031 24.8469 47.8266ZM25.5453 50.9156C25.2312 51.0281 24.9078 51.1828 24.7484 51.4734C24.6922 51.5813 24.6594 51.7031 24.6828 51.825C24.7203 52.0031 24.8844 52.1297 25.0484 52.2094C25.3766 52.3688 25.7469 52.411 26.1078 52.4156C26.8531 52.425 27.5937 52.2844 28.3297 52.1438C28.55 52.1016 28.775 52.0594 28.9719 51.9516C29.1687 51.8438 29.3375 51.6609 29.3703 51.4406C29.4172 51.1453 29.2062 50.8594 28.9484 50.7188C28.0578 50.2313 26.4406 50.5969 25.5453 50.9156Z" fill="#94D1E0"/>
<path d="M23.9422 39.4687C24.3688 39.5109 24.8188 39.4734 25.1797 39.2437C25.5406 39.0141 25.7703 38.5453 25.625 38.1422C25.55 37.9312 25.3859 37.7625 25.2266 37.6031C24.875 37.2562 24.5234 36.9094 24.1766 36.5625C23.7875 36.1734 23.3984 35.7891 22.9766 35.4375C22.325 34.8937 21.4484 34.3828 20.5906 34.7812C19.8594 35.1187 19.6859 35.7844 20.0094 36.4828C20.6984 37.95 22.3016 39.3 23.9422 39.4687Z" fill="#FFFF8D"/>
</svg>
