<svg width="15" height="15" viewBox="0 0 15 15" fill="none" xmlns="http://www.w3.org/2000/svg">
<path d="M7.5 12C8.69347 12 9.83807 11.5259 10.682 10.682C11.5259 9.83807 12 8.69347 12 7.5C12 6.30653 11.5259 5.16193 10.682 4.31802C9.83807 3.47411 8.69347 3 7.5 3C6.30653 3 5.16193 3.47411 4.31802 4.31802C3.47411 5.16193 3 6.30653 3 7.5C3 8.69347 3.47411 9.83807 4.31802 10.682C5.16193 11.5259 6.30653 12 7.5 12ZM7.5 0C3.35775 0 0 3.35775 0 7.5C0 11.6423 3.35775 15 7.5 15C11.6423 15 15 11.6423 15 7.5C15 3.35775 11.6423 0 7.5 0ZM1.125 7.5C1.125 5.80925 1.79665 4.18774 2.99219 2.99219C4.18774 1.79665 5.80925 1.125 7.5 1.125C9.19075 1.125 10.8123 1.79665 12.0078 2.99219C13.2034 4.18774 13.875 5.80925 13.875 7.5C13.875 9.19075 13.2034 10.8123 12.0078 12.0078C10.8123 13.2034 9.19075 13.875 7.5 13.875C5.80925 13.875 4.18774 13.2034 2.99219 12.0078C1.79665 10.8123 1.125 9.19075 1.125 7.5Z" fill="#FF0400"/>
</svg>
