<svg width="78" height="78" viewBox="0 0 78 78" fill="none" xmlns="http://www.w3.org/2000/svg">
<path d="M10.875 48.375C16.0526 48.375 20.25 44.1776 20.25 39C20.25 44.1776 24.4474 48.375 29.625 48.375C34.8026 48.375 39 44.1776 39 39C39 44.1776 43.1974 48.375 48.375 48.375C53.5526 48.375 57.75 44.1776 57.75 39C57.75 44.1776 61.9474 48.375 67.125 48.375C72.3026 48.375 76.5 44.1776 76.5 39C76.5 59.7107 59.7107 76.5 39 76.5C18.2893 76.5 1.5 59.7107 1.5 39C1.5 44.1776 5.69734 48.375 10.875 48.375Z" fill="#00BCFF" stroke="#2F88FF" stroke-width="2" stroke-linecap="round" stroke-linejoin="round"/>
<path d="M46.5 18.375C46.5 22.5171 43.1421 25.875 39 25.875C34.8579 25.875 31.5 22.5171 31.5 18.375C31.5 14.2329 39 1.5 39 1.5C39 1.5 46.5 14.2329 46.5 18.375Z" fill="#00BCFF" stroke="#2F88FF" stroke-width="2" stroke-linecap="round" stroke-linejoin="round"/>
</svg>
