<svg width="10" height="18" viewBox="0 0 10 18" fill="none" xmlns="http://www.w3.org/2000/svg">
<path d="M5 1.25C4.53587 1.25 4.09075 1.43437 3.76256 1.76256C3.43438 2.09075 3.25 2.53587 3.25 3V10.8935L3.021 11.0815C2.52213 11.4897 2.1617 12.0422 1.9891 12.6633C1.81651 13.2843 1.8402 13.9436 2.05692 14.5507C2.27364 15.1578 2.6728 15.683 3.19968 16.0543C3.72657 16.4257 4.3554 16.625 5 16.625C5.6446 16.625 6.27344 16.4257 6.80032 16.0543C7.32721 15.683 7.72636 15.1578 7.94308 14.5507C8.15981 13.9436 8.18349 13.2843 8.0109 12.6633C7.83831 12.0422 7.47787 11.4897 6.979 11.0815L6.75 10.8935V3C6.75 2.77019 6.70474 2.54262 6.61679 2.3303C6.52884 2.11798 6.39994 1.92507 6.23744 1.76256C6.07494 1.60006 5.88202 1.47116 5.6697 1.38321C5.45738 1.29526 5.22981 1.25 5 1.25ZM2 3C2 2.20435 2.31607 1.44129 2.87868 0.87868C3.44129 0.316071 4.20435 0 5 0C5.79565 0 6.55871 0.316071 7.12132 0.87868C7.68393 1.44129 8 2.20435 8 3V10.3155C8.63791 10.9165 9.08063 11.6952 9.27078 12.5507C9.46094 13.4062 9.38976 14.2991 9.06648 15.1137C8.7432 15.9283 8.18272 16.6271 7.45767 17.1194C6.73261 17.6117 5.87641 17.8749 5 17.8749C4.1236 17.8749 3.26739 17.6117 2.54234 17.1194C1.81728 16.6271 1.2568 15.9283 0.933521 15.1137C0.610242 14.2991 0.539068 13.4062 0.729222 12.5507C0.919376 11.6952 1.36209 10.9165 2 10.3155V3ZM7 13.5C6.99997 13.8685 6.89812 14.2299 6.70569 14.5442C6.51325 14.8585 6.23772 15.1135 5.9095 15.2811C5.58129 15.4487 5.21315 15.5223 4.84572 15.4939C4.47829 15.4654 4.12586 15.3361 3.82733 15.12C3.5288 14.9039 3.29577 14.6095 3.15398 14.2694C3.01218 13.9292 2.96712 13.5565 3.02378 13.1924C3.08044 12.8282 3.2366 12.4868 3.47505 12.2058C3.71349 11.9248 4.02493 11.7152 4.375 11.6V6.125C4.375 5.95924 4.44085 5.80027 4.55806 5.68306C4.67527 5.56585 4.83424 5.5 5 5.5C5.16576 5.5 5.32473 5.56585 5.44194 5.68306C5.55915 5.80027 5.625 5.95924 5.625 6.125V11.6C6.02504 11.7316 6.37334 11.9861 6.62023 12.3273C6.86713 12.6685 7.00004 13.0789 7 13.5Z" fill="#FF0400"/>
</svg>
